<svg id="Layer_1" data-name="Layer 1" xmlns="http://www.w3.org/2000/svg" viewBox="0 0 1205.0004 364.6489"><defs><style>.cls-1{fill:#fff;}</style></defs><title>logo-white</title><path class="cls-1" d="M193.9627,359.2109a18.5368,18.5368,0,0,1-26.215.0175l-.0175-.0175L125.9938,317.48l-72.0912.2-27.099-31.6579H139.328a18.6127,18.6127,0,0,1,13.1216,5.42l28.4083,28.4144,57.6482-57.6482v52.4643Z" transform="translate(0 -0.0001)"/><path class="cls-1" d="M355.3007,166.7745a18.5311,18.5311,0,0,1,.0255,26.2069l-.0255.0255-41.737,41.7425.2125,72.0912-31.6694,27.093V221.4154a18.6142,18.6142,0,0,1,5.4376-13.1222l28.4023-28.4023-57.6482-57.6542h52.47Z" transform="translate(0 -0.0001)"/><path class="cls-1" d="M5.4428,196.581a18.5252,18.5252,0,0,1-.0337-26.1987l.0337-.0337,41.7305-41.7305L46.9668,56.521l31.67-27.0991V141.9463a18.6021,18.6021,0,0,1-5.4315,13.1163L44.7909,183.4769l57.6542,57.6482H49.9688Z" transform="translate(0 -0.0001)"/><path class="cls-1" d="M167.8009,5.4427A18.5257,18.5257,0,0,1,194,5.41l.0331.0331,41.7426,41.73,72.0911-.2059L334.96,78.6305H222.4416a18.6343,18.6343,0,0,1-13.1222-5.4315L180.9111,44.7907l-57.6482,57.6538v-52.47Z" transform="translate(0 -0.0001)"/><rect class="cls-1" x="129.8578" y="126.0765" width="101.0893" height="101.0893" transform="translate(-72.0513 179.2949) rotate(-45)"/><path class="cls-1" d="M429.4361,202.6778v57.5008H391.3293V101.6151h72.69q32.7533,0,51.5472,13.9388,18.794,13.9418,18.7924,36.7032t-18.7924,36.5911q-18.7938,13.8311-51.5472,13.83Zm0-24.5012h34.583q15.9189,0,24.1414-7.2421a23.51,23.51,0,0,0,8.2212-18.4622,24.49,24.49,0,0,0-8.1563-18.8927q-8.1562-7.4618-24.2063-7.46h-34.583Z" transform="translate(0 -0.0001)"/><path class="cls-1" d="M596.9814,262.4668q-31.5856,0-49.33-16.168-17.75-16.18-17.7486-41.66v-4.3553q0-26.4636,17.2266-43.3437,17.2237-16.8787,47.3718-16.7725,28.4452,0,43.65,14.54,15.2024,14.5387,15.2038,39.1506v16.4452H569.1835l-.3922.6517q.911,12.0883,8.8109,19.6033,7.8909,7.5194,23.4249,7.5134a93.2144,93.2144,0,0,0,21.7264-2.1761,98.939,98.939,0,0,0,18.4651-6.6406L651.53,248.8524q-8.4879,5.7767-22.9677,9.6925A120.6569,120.6569,0,0,1,596.9814,262.4668Zm-2.48-97.7955q-11.4869,0-17.6837,6.5875-6.1968,6.5906-7.5046,17.48l.2625.5455h46.4576v-2.3974q0-10.3457-5.09-16.28t-16.4417-5.9356Z" transform="translate(0 -0.0001)"/><path class="cls-1" d="M669.9277,202.2445q0-27.879,14.4814-44.9774,14.49-17.1,40.7164-17.1a46.4123,46.4123,0,0,1,20.8772,4.4644,44.0083,44.0083,0,0,1,15.4042,12.7416l2.9959-15.0269H797.17v117.29q0,22.9737-18.011,35.5561-18.0111,12.5793-50.2468,12.5794a113.6653,113.6653,0,0,1-22.7054-2.4534,119.5016,119.5016,0,0,1-22.1868-6.6938l6.3929-23.7434a99.796,99.796,0,0,0,18.0818,5.2842,106.6732,106.6732,0,0,0,20.1577,1.7929q15.6579,0,23.0357-5.4434,7.36-5.4494,7.3718-16.9908V248.8524a41.8645,41.8645,0,0,1-14.7437,10.129,50.8538,50.8538,0,0,1-19.45,3.4854q-25.9727,0-40.4569-15.8968-14.4681-15.9056-14.4814-42.04Zm38.1068,2.2852q0,15.4677,6.1924,24.342,6.21,8.8728,20.2992,8.8758a36.7172,36.7172,0,0,0,14.8145-2.6716,23.07,23.07,0,0,0,9.7191-7.7847V176.2157a24.1962,24.1962,0,0,0-9.7191-8.3863,33.1221,33.1221,0,0,0-14.555-2.94q-13.96,0-20.3582,10.3443-6.387,10.35-6.3929,27.0106Z" transform="translate(0 -0.0001)"/><path class="cls-1" d="M972.1781,260.1786h-38.11L857.4656,153.236l-.7785.1092V260.1786h-38.11V101.6151h38.11L933.29,208.4515l.7785-.1091V101.6151h38.11Z" transform="translate(0 -0.0001)"/><path class="cls-1" d="M1060.1394,262.4668q-31.5811,0-49.3267-16.168-17.7456-16.18-17.7456-41.66v-4.3553q0-26.4636,17.2207-43.3437,17.2325-16.8787,47.3748-16.7725,28.45,0,43.6534,14.54,15.1978,14.5387,15.2038,39.1506v16.4452h-84.1751l-.3893.6517q.9114,12.0883,8.8051,19.6033,7.9,7.5194,23.4249,7.5134a93.2657,93.2657,0,0,0,21.7324-2.1761,99.0057,99.0057,0,0,0,18.4651-6.6406l10.3089,19.5974q-8.4837,5.7766-22.9709,9.6925A120.6262,120.6262,0,0,1,1060.1394,262.4668Zm-2.4769-97.7955q-11.4826,0-17.6807,6.5875-6.2011,6.5906-7.5076,17.48l.26.5455h46.4605v-2.3974q0-10.3457-5.09-16.28Q1069.0181,164.6712,1057.6625,164.6713Z" transform="translate(0 -0.0001)"/><path class="cls-1" d="M1179.0273,113.4868v28.86h23.8849v22.325h-23.8849v60.0067q0,6.8647,3.4618,9.8017a13.514,13.514,0,0,0,9.0645,2.9428,43.1714,43.1714,0,0,0,5.2252-.2772,50.45,50.45,0,0,0,5.09-.9259L1205,259.2a90.298,90.298,0,0,1-11.1581,2.4474,78.9375,78.9375,0,0,1-11.8128.82q-19.71,0-30.3426-9.0379-10.6332-9.0411-10.6332-28.6413V164.6713H1120.436v-22.325h20.6177v-28.86Z" transform="translate(0 -0.0001)"/></svg>